<?xml version="1.0" encoding="UTF-8"?>
<svg xmlns="http://www.w3.org/2000/svg" width="960" height="540" viewBox="0 0 960 540" role="img" aria-labelledby="chart-title chart-desc" data-renderer-version="3">
  <title id="chart-title">dsh-session-insights npm 下载增长</title>
  <desc id="chart-desc">dsh-session-insights npm 下载增长. 全量每日历史 · 2026-08-22 → 2026-10-02 · 42 个每日数据点 · 日期标签已抽样 · 最新一天可能调整. 下载量统计 registry 请求，不等于独立用户数或已确认的真实安装人数。</desc>
  <defs>
    <linearGradient id="growth-fill" x1="0" y1="0" x2="0" y2="1">
      <stop offset="0%" stop-color="#14b8a6" stop-opacity="0.24"/>
      <stop offset="100%" stop-color="#14b8a6" stop-opacity="0.02"/>
    </linearGradient>
    <filter id="soft-shadow" x="-10%" y="-10%" width="120%" height="120%">
      <feDropShadow dx="0" dy="4" stdDeviation="8" flood-color="#0f172a" flood-opacity="0.08"/>
    </filter>
  </defs>
  <style>
    text { font-family: Inter, ui-sans-serif, -apple-system, BlinkMacSystemFont, "Segoe UI", "PingFang SC", "Microsoft YaHei", sans-serif; fill: #172033; }
    .title { font-size: 24px; font-weight: 720; letter-spacing: -0.3px; }
    .subtitle { font-size: 12px; fill: #64748b; }
    .metric-label { font-size: 11px; fill: #64748b; font-weight: 650; letter-spacing: 0.4px; }
    .metric-value { font-size: 34px; fill: #0f766e; font-weight: 760; letter-spacing: -1px; }
    .axis-title { font-size: 12px; fill: #475569; font-weight: 650; }
    .axis { font-size: 11px; fill: #718096; }
    .x-axis-tick { font-family: ui-monospace, "SFMono-Regular", Consolas, "Liberation Mono", monospace; font-variant-numeric: tabular-nums; }
    .grid { stroke: #e6edf4; stroke-width: 1; }
    .package-role { font-size: 11px; fill: #64748b; font-weight: 650; }
    .package-name { font-size: 12px; fill: #334155; }
    .package-total { font-size: 13px; fill: #172033; font-weight: 720; }
    .rename { stroke: #8b5cf6; stroke-width: 1.5; stroke-dasharray: 5 5; }
    .rename-label { font-size: 11px; fill: #6d28d9; font-weight: 650; }
    .endpoint { font-size: 12px; fill: #0f766e; font-weight: 740; }
    .endpoint-backdrop { fill: #ffffff; stroke: #99f6e4; stroke-width: 1; }
  </style>
  <rect width="100%" height="100%" rx="18" fill="#f8fafc"/>
  <rect x="18" y="18" width="924" height="504" rx="16" fill="#ffffff" filter="url(#soft-shadow)"/>
  <text x="84" y="50" class="title">dsh-session-insights npm 下载增长</text>
  <text x="84" y="72" class="subtitle">全量每日历史 · 2026-08-22 → 2026-10-02 · 42 个每日数据点 · 日期标签已抽样 · 最新一天可能调整</text>
  <text x="924" y="38" text-anchor="end" class="metric-label">累计下载量</text>
  <text x="924" y="70" text-anchor="end" class="metric-value">2,511</text>
  <g transform="translate(84,102)"><circle cx="5" cy="-4" r="5" fill="#2563eb"/><text x="18" y="0" class="package-role">npm 包</text><text x="18" y="23" class="package-name">dsh-session-insights</text><text x="244" y="23" text-anchor="end" class="package-total">2,511</text></g>
  <text x="84" y="160" class="axis-title">累计下载量</text>
  <line x1="84" y1="436" x2="924" y2="436" class="grid"/><text x="70" y="440" text-anchor="end" class="axis">0</text><line x1="84" y1="371" x2="924" y2="371" class="grid"/><text x="70" y="375" text-anchor="end" class="axis">750</text><line x1="84" y1="306" x2="924" y2="306" class="grid"/><text x="70" y="310" text-anchor="end" class="axis">1,500</text><line x1="84" y1="241" x2="924" y2="241" class="grid"/><text x="70" y="245" text-anchor="end" class="axis">2,250</text><line x1="84" y1="176" x2="924" y2="176" class="grid"/><text x="70" y="180" text-anchor="end" class="axis">3,000</text>
  <polygon points="84.00,436 84.00,425.25 104.49,424.13 124.98,422.39 145.46,408.87 165.95,405.49 186.44,402.72 206.93,400.73 227.41,398.91 247.90,396.83 268.39,396.05 288.88,394.49 309.37,392.93 329.85,392.93 350.34,390.59 370.83,387.90 391.32,386.08 411.80,386.08 432.29,386.08 452.78,383.57 473.27,380.36 493.76,352.80 514.24,348.81 534.73,344.74 555.22,341.01 575.71,341.01 596.20,338.24 616.68,334.77 637.17,332.17 657.66,329.83 678.15,315.62 698.63,311.72 719.12,308.43 739.61,305.13 760.10,302.53 780.59,298.81 801.07,285.89 821.56,278.70 842.05,274.71 862.54,251.49 883.02,228.26 903.51,218.38 924.00,218.38 924.00,436" fill="url(#growth-fill)"/>
  <polyline points="84.00,425.25 104.49,424.13 124.98,422.39 145.46,408.87 165.95,405.49 186.44,402.72 206.93,400.73 227.41,398.91 247.90,396.83 268.39,396.05 288.88,394.49 309.37,392.93 329.85,392.93 350.34,390.59 370.83,387.90 391.32,386.08 411.80,386.08 432.29,386.08 452.78,383.57 473.27,380.36 493.76,352.80 514.24,348.81 534.73,344.74 555.22,341.01 575.71,341.01 596.20,338.24 616.68,334.77 637.17,332.17 657.66,329.83 678.15,315.62 698.63,311.72 719.12,308.43 739.61,305.13 760.10,302.53 780.59,298.81 801.07,285.89 821.56,278.70 842.05,274.71 862.54,251.49 883.02,228.26 903.51,218.38 924.00,218.38" fill="none" stroke="#0f766e" stroke-width="3.5" stroke-linejoin="round" stroke-linecap="round"/>
  
  <circle cx="924" cy="218.38" r="5" fill="#ffffff" stroke="#0f766e" stroke-width="3"/>
  <g class="endpoint-badge" data-position="above">
    <rect x="864.50" y="184.38" width="51.50" height="22" rx="6" class="endpoint-backdrop"/>
    <text x="909.00" y="199.38" text-anchor="end" class="endpoint">2,511</text>
  </g>
  <text x="124.98" y="464" text-anchor="middle" class="axis x-axis-tick" data-day="2026-08-24">08-24</text><text x="186.44" y="464" text-anchor="middle" class="axis x-axis-tick" data-day="2026-08-27">08-27</text><text x="247.90" y="464" text-anchor="middle" class="axis x-axis-tick" data-day="2026-08-30">08-30</text><text x="309.37" y="464" text-anchor="middle" class="axis x-axis-tick" data-day="2026-09-02">09-02</text><text x="370.83" y="464" text-anchor="middle" class="axis x-axis-tick" data-day="2026-09-05">09-05</text><text x="432.29" y="464" text-anchor="middle" class="axis x-axis-tick" data-day="2026-09-08">09-08</text><text x="493.76" y="464" text-anchor="middle" class="axis x-axis-tick" data-day="2026-09-11">09-11</text><text x="555.22" y="464" text-anchor="middle" class="axis x-axis-tick" data-day="2026-09-14">09-14</text><text x="616.68" y="464" text-anchor="middle" class="axis x-axis-tick" data-day="2026-09-17">09-17</text><text x="678.15" y="464" text-anchor="middle" class="axis x-axis-tick" data-day="2026-09-20">09-20</text><text x="739.61" y="464" text-anchor="middle" class="axis x-axis-tick" data-day="2026-09-23">09-23</text><text x="801.07" y="464" text-anchor="middle" class="axis x-axis-tick" data-day="2026-09-26">09-26</text><text x="862.54" y="464" text-anchor="middle" class="axis x-axis-tick" data-day="2026-09-29">09-29</text><text x="924.00" y="464" text-anchor="middle" class="axis x-axis-tick" data-day="2026-10-02">10-02</text>
  <text x="84" y="496" class="subtitle">来源：npm Downloads API · 下载量统计 registry 请求，不等于独立用户数或已确认的真实安装人数。</text>
</svg>
