<?xml version="1.0" encoding="UTF-8"?>
<svg xmlns="http://www.w3.org/2000/svg" width="960" height="540" viewBox="0 0 960 540" role="img" aria-labelledby="chart-title chart-desc" data-renderer-version="3">
  <title id="chart-title">dsh-session-insights npm download growth</title>
  <desc id="chart-desc">dsh-session-insights npm download growth. All available daily history · 2026-08-22 → 2026-09-24 · 34 daily points · date labels sampled · latest day may be revised. Download counts measure registry requests, not unique users or confirmed installations.</desc>
  <defs>
    <linearGradient id="growth-fill" x1="0" y1="0" x2="0" y2="1">
      <stop offset="0%" stop-color="#14b8a6" stop-opacity="0.24"/>
      <stop offset="100%" stop-color="#14b8a6" stop-opacity="0.02"/>
    </linearGradient>
    <filter id="soft-shadow" x="-10%" y="-10%" width="120%" height="120%">
      <feDropShadow dx="0" dy="4" stdDeviation="8" flood-color="#0f172a" flood-opacity="0.08"/>
    </filter>
  </defs>
  <style>
    text { font-family: Inter, ui-sans-serif, -apple-system, BlinkMacSystemFont, "Segoe UI", "PingFang SC", "Microsoft YaHei", sans-serif; fill: #172033; }
    .title { font-size: 24px; font-weight: 720; letter-spacing: -0.3px; }
    .subtitle { font-size: 12px; fill: #64748b; }
    .metric-label { font-size: 11px; fill: #64748b; font-weight: 650; letter-spacing: 0.4px; }
    .metric-value { font-size: 34px; fill: #0f766e; font-weight: 760; letter-spacing: -1px; }
    .axis-title { font-size: 12px; fill: #475569; font-weight: 650; }
    .axis { font-size: 11px; fill: #718096; }
    .x-axis-tick { font-family: ui-monospace, "SFMono-Regular", Consolas, "Liberation Mono", monospace; font-variant-numeric: tabular-nums; }
    .grid { stroke: #e6edf4; stroke-width: 1; }
    .package-role { font-size: 11px; fill: #64748b; font-weight: 650; }
    .package-name { font-size: 12px; fill: #334155; }
    .package-total { font-size: 13px; fill: #172033; font-weight: 720; }
    .rename { stroke: #8b5cf6; stroke-width: 1.5; stroke-dasharray: 5 5; }
    .rename-label { font-size: 11px; fill: #6d28d9; font-weight: 650; }
    .endpoint { font-size: 12px; fill: #0f766e; font-weight: 740; }
    .endpoint-backdrop { fill: #ffffff; stroke: #99f6e4; stroke-width: 1; }
  </style>
  <rect width="100%" height="100%" rx="18" fill="#f8fafc"/>
  <rect x="18" y="18" width="924" height="504" rx="16" fill="#ffffff" filter="url(#soft-shadow)"/>
  <text x="84" y="50" class="title">dsh-session-insights npm download growth</text>
  <text x="84" y="72" class="subtitle">All available daily history · 2026-08-22 → 2026-09-24 · 34 daily points · date labels sampled · latest day may be revised</text>
  <text x="924" y="38" text-anchor="end" class="metric-label">Total downloads</text>
  <text x="924" y="70" text-anchor="end" class="metric-value">1,394</text>
  <g transform="translate(84,102)"><circle cx="5" cy="-4" r="5" fill="#2563eb"/><text x="18" y="0" class="package-role">Package</text><text x="18" y="23" class="package-name">dsh-session-insights</text><text x="244" y="23" text-anchor="end" class="package-total">1,394</text></g>
  <text x="84" y="160" class="axis-title">Cumulative downloads</text>
  <line x1="84" y1="436" x2="924" y2="436" class="grid"/><text x="70" y="440" text-anchor="end" class="axis">0</text><line x1="84" y1="371" x2="924" y2="371" class="grid"/><text x="70" y="375" text-anchor="end" class="axis">375</text><line x1="84" y1="306" x2="924" y2="306" class="grid"/><text x="70" y="310" text-anchor="end" class="axis">750</text><line x1="84" y1="241" x2="924" y2="241" class="grid"/><text x="70" y="245" text-anchor="end" class="axis">1,125</text><line x1="84" y1="176" x2="924" y2="176" class="grid"/><text x="70" y="180" text-anchor="end" class="axis">1,500</text>
  <polygon points="84.00,436 84.00,414.51 109.45,412.25 134.91,408.79 160.36,381.75 185.82,374.99 211.27,369.44 236.73,365.45 262.18,361.81 287.64,357.65 313.09,356.09 338.55,352.97 364.00,349.85 389.45,349.85 414.91,345.17 440.36,339.80 465.82,336.16 491.27,336.16 516.73,336.16 542.18,331.13 567.64,324.72 593.09,269.60 618.55,261.63 644.00,253.48 669.45,246.03 694.91,246.03 720.36,240.48 745.82,240.48 771.27,235.28 796.73,230.60 822.18,202.17 847.64,194.37 873.09,194.37 898.55,194.37 924.00,194.37 924.00,436" fill="url(#growth-fill)"/>
  <polyline points="84.00,414.51 109.45,412.25 134.91,408.79 160.36,381.75 185.82,374.99 211.27,369.44 236.73,365.45 262.18,361.81 287.64,357.65 313.09,356.09 338.55,352.97 364.00,349.85 389.45,349.85 414.91,345.17 440.36,339.80 465.82,336.16 491.27,336.16 516.73,336.16 542.18,331.13 567.64,324.72 593.09,269.60 618.55,261.63 644.00,253.48 669.45,246.03 694.91,246.03 720.36,240.48 745.82,240.48 771.27,235.28 796.73,230.60 822.18,202.17 847.64,194.37 873.09,194.37 898.55,194.37 924.00,194.37" fill="none" stroke="#0f766e" stroke-width="3.5" stroke-linejoin="round" stroke-linecap="round"/>
  
  <circle cx="924" cy="194.37333333333333" r="5" fill="#ffffff" stroke="#0f766e" stroke-width="3"/>
  <g class="endpoint-badge" data-position="below">
    <rect x="864.50" y="206.37" width="51.50" height="22" rx="6" class="endpoint-backdrop"/>
    <text x="909.00" y="221.37" text-anchor="end" class="endpoint">1,394</text>
  </g>
  <text x="109.45" y="464" text-anchor="middle" class="axis x-axis-tick" data-day="2026-08-23">08-23</text><text x="160.36" y="464" text-anchor="middle" class="axis x-axis-tick" data-day="2026-08-25">08-25</text><text x="211.27" y="464" text-anchor="middle" class="axis x-axis-tick" data-day="2026-08-27">08-27</text><text x="262.18" y="464" text-anchor="middle" class="axis x-axis-tick" data-day="2026-08-29">08-29</text><text x="313.09" y="464" text-anchor="middle" class="axis x-axis-tick" data-day="2026-08-31">08-31</text><text x="364.00" y="464" text-anchor="middle" class="axis x-axis-tick" data-day="2026-09-02">09-02</text><text x="414.91" y="464" text-anchor="middle" class="axis x-axis-tick" data-day="2026-09-04">09-04</text><text x="465.82" y="464" text-anchor="middle" class="axis x-axis-tick" data-day="2026-09-06">09-06</text><text x="516.73" y="464" text-anchor="middle" class="axis x-axis-tick" data-day="2026-09-08">09-08</text><text x="567.64" y="464" text-anchor="middle" class="axis x-axis-tick" data-day="2026-09-10">09-10</text><text x="618.55" y="464" text-anchor="middle" class="axis x-axis-tick" data-day="2026-09-12">09-12</text><text x="669.45" y="464" text-anchor="middle" class="axis x-axis-tick" data-day="2026-09-14">09-14</text><text x="720.36" y="464" text-anchor="middle" class="axis x-axis-tick" data-day="2026-09-16">09-16</text><text x="771.27" y="464" text-anchor="middle" class="axis x-axis-tick" data-day="2026-09-18">09-18</text><text x="822.18" y="464" text-anchor="middle" class="axis x-axis-tick" data-day="2026-09-20">09-20</text><text x="873.09" y="464" text-anchor="middle" class="axis x-axis-tick" data-day="2026-09-22">09-22</text><text x="924.00" y="464" text-anchor="middle" class="axis x-axis-tick" data-day="2026-09-24">09-24</text>
  <text x="84" y="496" class="subtitle">Source: npm Downloads API · Download counts measure registry requests, not unique users or confirmed installations.</text>
</svg>
