<?xml version="1.0" encoding="UTF-8"?>
<svg xmlns="http://www.w3.org/2000/svg" width="960" height="540" viewBox="0 0 960 540" role="img" aria-labelledby="chart-title chart-desc" data-renderer-version="2">
  <title id="chart-title">dsh-session-insights npm 下载增长</title>
  <desc id="chart-desc">dsh-session-insights npm 下载增长. 全量每日历史 · 2026-08-22 → 2026-09-04 · 14 个每日数据点 · 日期标签已抽样 · 最新一天可能调整. 下载量统计 registry 请求，不等于独立用户数或已确认的真实安装人数。</desc>
  <defs>
    <linearGradient id="growth-fill" x1="0" y1="0" x2="0" y2="1">
      <stop offset="0%" stop-color="#14b8a6" stop-opacity="0.24"/>
      <stop offset="100%" stop-color="#14b8a6" stop-opacity="0.02"/>
    </linearGradient>
    <filter id="soft-shadow" x="-10%" y="-10%" width="120%" height="120%">
      <feDropShadow dx="0" dy="4" stdDeviation="8" flood-color="#0f172a" flood-opacity="0.08"/>
    </filter>
  </defs>
  <style>
    text { font-family: Inter, ui-sans-serif, -apple-system, BlinkMacSystemFont, "Segoe UI", "PingFang SC", "Microsoft YaHei", sans-serif; fill: #172033; }
    .title { font-size: 24px; font-weight: 720; letter-spacing: -0.3px; }
    .subtitle { font-size: 12px; fill: #64748b; }
    .metric-label { font-size: 11px; fill: #64748b; font-weight: 650; letter-spacing: 0.4px; }
    .metric-value { font-size: 34px; fill: #0f766e; font-weight: 760; letter-spacing: -1px; }
    .axis-title { font-size: 12px; fill: #475569; font-weight: 650; }
    .axis { font-size: 11px; fill: #718096; }
    .x-axis-tick { font-family: ui-monospace, "SFMono-Regular", Consolas, "Liberation Mono", monospace; font-variant-numeric: tabular-nums; }
    .grid { stroke: #e6edf4; stroke-width: 1; }
    .package-role { font-size: 11px; fill: #64748b; font-weight: 650; }
    .package-name { font-size: 12px; fill: #334155; }
    .package-total { font-size: 13px; fill: #172033; font-weight: 720; }
    .rename { stroke: #8b5cf6; stroke-width: 1.5; stroke-dasharray: 5 5; }
    .rename-label { font-size: 11px; fill: #6d28d9; font-weight: 650; }
    .endpoint { font-size: 12px; fill: #0f766e; font-weight: 740; }
    .endpoint-backdrop { fill: #ffffff; stroke: #99f6e4; stroke-width: 1; }
  </style>
  <rect width="100%" height="100%" rx="18" fill="#f8fafc"/>
  <rect x="18" y="18" width="924" height="504" rx="16" fill="#ffffff" filter="url(#soft-shadow)"/>
  <text x="84" y="50" class="title">dsh-session-insights npm 下载增长</text>
  <text x="84" y="72" class="subtitle">全量每日历史 · 2026-08-22 → 2026-09-04 · 14 个每日数据点 · 日期标签已抽样 · 最新一天可能调整</text>
  <text x="924" y="38" text-anchor="end" class="metric-label">累计下载量</text>
  <text x="924" y="70" text-anchor="end" class="metric-value">497</text>
  <g transform="translate(84,102)"><circle cx="5" cy="-4" r="5" fill="#2563eb"/><text x="18" y="0" class="package-role">npm 包</text><text x="18" y="23" class="package-name">dsh-session-insights</text><text x="244" y="23" text-anchor="end" class="package-total">497</text></g>
  <text x="84" y="160" class="axis-title">累计下载量</text>
  <line x1="84" y1="436" x2="924" y2="436" class="grid"/><text x="70" y="440" text-anchor="end" class="axis">0</text><line x1="84" y1="371" x2="924" y2="371" class="grid"/><text x="70" y="375" text-anchor="end" class="axis">125</text><line x1="84" y1="306" x2="924" y2="306" class="grid"/><text x="70" y="310" text-anchor="end" class="axis">250</text><line x1="84" y1="241" x2="924" y2="241" class="grid"/><text x="70" y="245" text-anchor="end" class="axis">375</text><line x1="84" y1="176" x2="924" y2="176" class="grid"/><text x="70" y="180" text-anchor="end" class="axis">500</text>
  <polygon points="84.00,436 84.00,371.52 148.62,364.76 213.23,354.36 277.85,273.24 342.46,252.96 407.08,236.32 471.69,224.36 536.31,213.44 600.92,200.96 665.54,196.28 730.15,186.92 794.77,177.56 859.38,177.56 924.00,177.56 924.00,436" fill="url(#growth-fill)"/>
  <polyline points="84.00,371.52 148.62,364.76 213.23,354.36 277.85,273.24 342.46,252.96 407.08,236.32 471.69,224.36 536.31,213.44 600.92,200.96 665.54,196.28 730.15,186.92 794.77,177.56 859.38,177.56 924.00,177.56" fill="none" stroke="#0f766e" stroke-width="3.5" stroke-linejoin="round" stroke-linecap="round"/>
  
  <circle cx="924" cy="177.56" r="5" fill="#ffffff" stroke="#0f766e" stroke-width="3"/>
  <g class="endpoint-badge" data-position="below">
    <rect x="879.50" y="189.56" width="36.50" height="22" rx="6" class="endpoint-backdrop"/>
    <text x="909.00" y="204.56" text-anchor="end" class="endpoint">497</text>
  </g>
  <text x="84.00" y="464" text-anchor="start" class="axis x-axis-tick" data-day="2026-08-22">08-22</text><text x="213.23" y="464" text-anchor="middle" class="axis x-axis-tick" data-day="2026-08-24">08-24</text><text x="277.85" y="464" text-anchor="middle" class="axis x-axis-tick" data-day="2026-08-25">08-25</text><text x="342.46" y="464" text-anchor="middle" class="axis x-axis-tick" data-day="2026-08-26">08-26</text><text x="407.08" y="464" text-anchor="middle" class="axis x-axis-tick" data-day="2026-08-27">08-27</text><text x="471.69" y="464" text-anchor="middle" class="axis x-axis-tick" data-day="2026-08-28">08-28</text><text x="536.31" y="464" text-anchor="middle" class="axis x-axis-tick" data-day="2026-08-29">08-29</text><text x="600.92" y="464" text-anchor="middle" class="axis x-axis-tick" data-day="2026-08-30">08-30</text><text x="665.54" y="464" text-anchor="middle" class="axis x-axis-tick" data-day="2026-08-31">08-31</text><text x="730.15" y="464" text-anchor="middle" class="axis x-axis-tick" data-day="2026-09-01">09-01</text><text x="794.77" y="464" text-anchor="middle" class="axis x-axis-tick" data-day="2026-09-02">09-02</text><text x="924.00" y="464" text-anchor="end" class="axis x-axis-tick" data-day="2026-09-04">09-04</text>
  <text x="84" y="496" class="subtitle">来源：npm Downloads API · 下载量统计 registry 请求，不等于独立用户数或已确认的真实安装人数。</text>
</svg>
